Coordinates
version=1
nRows=10
nColumns=40
inDegrees=yes

Units are S.I. units (second, meters, Newtons, ...)
Angles are in degrees.

endheader
time	pelvis_tilt	pelvis_list	pelvis_rotation	pelvis_tx	pelvis_ty	pelvis_tz	hip_flexion_r	hip_adduction_r	hip_rotation_r	knee_angle_r	knee_angle_r_beta	ankle_angle_r	subtalar_angle_r	mtp_angle_r	hip_flexion_l	hip_adduction_l	hip_rotation_l	knee_angle_l	knee_angle_l_beta	ankle_angle_l	subtalar_angle_l	mtp_angle_l	lumbar_extension	lumbar_bending	lumbar_rotation	arm_flex_r	arm_add_r	arm_rot_r	elbow_flex_r	pro_sup_r	wrist_flex_r	wrist_dev_r	arm_flex_l	arm_add_l	arm_rot_l	elbow_flex_l	pro_sup_l	wrist_flex_l	wrist_dev_l
      2.71000000	     -1.82468999	     -0.52647885	      2.51786718	      0.51831973	      0.88848162	     -1.46977749	     20.54649526	     -4.08059306	    -11.11671568	    -65.54848787	     -1.14403693	     -0.90397886	    -17.51821402	     20.53361051	     16.44270540	     -1.28310245	      5.23771759	    -30.85906721	     -0.53859233	     11.92213162	     13.34453378	      2.44851156	     -3.07473633	     -1.34883388	     -4.58171907	     -0.89639233	     -8.07805889	     -9.72838330	     28.74830866	     89.95437384	      0.00000000	      0.00000000	     -1.51930818	      9.28287617	     12.78757310	     33.55359287	     89.95437384	      0.00000000	      0.00000000
      2.72000000	     -1.83351396	     -0.63462687	      2.61897967	      0.52444175	      0.88862512	     -1.47057403	     21.46672242	     -3.98218019	    -11.25383205	    -64.83781537	     -1.13163336	     -0.09455979	    -17.56218544	     20.23859025	     15.93639689	     -1.21727562	      5.24694932	    -30.73815904	     -0.53648208	     12.27202759	     13.19466380	      2.36766546	     -3.14277209	     -1.18132066	     -4.80222073	     -0.96235263	     -8.06345012	     -9.81263960	     28.67821193	     89.95437384	      0.00000000	      0.00000000	     -1.17679421	      9.36660253	     12.72085311	     33.82116374	     89.95437384	      0.00000000	      0.00000000
      2.73000000	     -1.46473047	     -0.96594686	      2.86733842	      0.53066664	      0.88924729	     -1.47117481	     21.80917442	     -3.60578449	    -11.59971192	    -63.84760108	     -1.11435086	      1.13301949	    -17.44530124	     20.19416781	     15.04687097	     -0.92272470	      4.83588049	    -30.68725902	     -0.53559371	     12.79748468	     13.05613559	      2.13174462	     -3.65304953	     -0.76541631	     -5.15729925	     -0.96818420	     -7.95473074	    -10.18665377	     28.69040663	     89.95437384	      0.00000000	      0.00000000	     -0.81584611	      9.49142927	     12.62906400	     34.25905290	     89.95437384	      0.00000000	      0.00000000
      2.74000000	     -1.56634881	     -0.95414425	      2.93868276	      0.53670432	      0.88912053	     -1.47195896	     22.78886118	     -3.68319320	    -11.72463679	    -62.78459661	     -1.09579793	      1.73956508	    -17.45781150	     19.93299148	     14.65320228	     -0.95687391	      4.95056728	    -30.56320585	     -0.53342857	     13.01169587	     12.87487580	      2.04372927	     -3.62554924	     -0.72048789	     -5.33853962	     -1.07984627	     -7.95647250	    -10.21400778	     28.71733200	     89.95437384	      0.00000000	      0.00000000	     -0.48463840	      9.57986668	     12.54766110	     34.58151854	     89.95437384	      0.00000000	      0.00000000
      2.75000000	     -1.57229533	     -0.99853785	      3.03909650	      0.54276781	      0.88903682	     -1.47258681	     23.57621929	     -3.64012780	    -11.87629203	    -61.53954606	     -1.07406770	      2.54192894	    -17.60903255	     19.75537116	     14.14696681	     -0.95722229	      4.86165603	    -30.46580918	     -0.53172868	     13.37218436	     12.77417081	      1.93012761	     -3.69980778	     -0.63024443	     -5.54969631	     -1.14199010	     -7.92033347	    -10.31833252	     28.69605602	     89.95437384	      0.00000000	      0.00000000	     -0.15170115	      9.69881840	     12.40492870	     34.99510378	     89.95437384	      0.00000000	      0.00000000
      2.76000000	     -1.43071119	     -1.16502087	      3.22747504	      0.54889889	      0.88914201	     -1.47316040	     24.07202600	     -3.44951687	    -12.12440073	    -59.98224849	     -1.04688773	      3.42138141	    -17.72885737	     19.71773030	     13.47887374	     -0.85173880	      4.52706949	    -30.35673469	     -0.52982497	     13.85854667	     12.73304499	      1.75205628	     -3.95204035	     -0.38839364	     -5.80465010	     -1.23102032	     -7.87757506	    -10.56061110	     28.71686574	     89.95437384	      0.00000000	      0.00000000	      0.16563768	      9.85581190	     12.15051448	     35.52266035	     89.95437384	      0.00000000	      0.00000000
      2.77000000	     -1.58021023	     -1.05457758	      3.27329950	      0.55510111	      0.88876099	     -1.47381172	     24.91802227	     -3.65757216	    -12.34081000	    -58.40680797	     -1.01939110	      3.78160160	    -17.56083515	     19.49772488	     13.13348104	     -0.97252790	      4.74248297	    -30.26612531	     -0.52824354	     13.99573103	     12.56665567	      1.66883651	     -3.85404213	     -0.45003963	     -5.92060654	     -1.42472246	     -7.87516527	    -10.57569930	     28.77545007	     89.95437384	      0.00000000	      0.00000000	      0.46630221	      9.95201419	     12.03329284	     35.96876365	     89.95437384	      0.00000000	      0.00000000
      2.78000000	     -1.20557076	     -1.33608970	      3.47839396	      0.56159149	      0.88926315	     -1.47423745	     24.92542983	     -3.28656744	    -12.67803731	    -56.37123406	     -0.98386364	      4.17805729	    -17.67135111	     19.72363287	     12.08512694	     -0.71061795	      4.36531504	    -29.96173370	     -0.52293090	     14.49396190	     12.59293962	      1.41373250	     -4.34300917	     -0.06886642	     -6.18576822	     -1.40780132	     -7.82035401	    -10.78079986	     28.57775363	     89.95437384	      0.00000000	      0.00000000	      0.73129276	     10.13849872	     11.68311291	     36.63006349	     89.95437384	      0.00000000	      0.00000000
      2.79000000	     -1.05765992	     -1.40508317	      3.64145779	      0.56792422	      0.88925722	     -1.47471286	     25.20976431	     -3.22667372	    -12.93555320	    -54.27380151	     -0.94725653	      4.32620842	    -17.49452413	     19.83812702	     11.36485385	     -0.61432050	      4.39559454	    -29.78601719	     -0.51986407	     14.80493847	     12.40059126	      1.09237026	     -4.57855328	      0.07042127	     -6.41675528	     -1.49295025	     -7.82841037	    -10.73810743	     28.56923705	     89.95437384	      0.00000000	      0.00000000	      1.00429013	     10.30361277	     11.40251289	     37.22365734	     89.95437384	      0.00000000	      0.00000000
      2.80000000	     -1.15835096	     -1.42436550	      3.72978960	      0.57417811	      0.88880165	     -1.47506562	     25.77164775	     -3.20731650	    -13.11835082	    -52.18871954	     -0.91086499	      4.52824642	    -17.24880151	     19.73545577	     10.91664653	     -0.59389278	      4.39551795	    -29.60688183	     -0.51673757	     15.12473755	     12.18413238	      0.87524755	     -4.52670101	      0.14055446	     -6.57316275	     -1.57826849	     -7.82178350	    -10.76586284	     28.45029943	     89.95437384	      0.00000000	      0.00000000	      1.22931696	     10.42260929	     11.25272367	     37.82340028	     89.95437384	      0.00000000	      0.00000000
